<?xml version="1.0" encoding="UTF-8" standalone="no"?>
<!DOCTYPE svg PUBLIC "-//W3C//DTD SVG 1.1//EN"
 "http://www.w3.org/Graphics/SVG/1.1/DTD/svg11.dtd">
<!-- Generated by graphviz version 2.38.0 (20140413.2041)
 -->
<!-- Title: G Pages: 1 -->
<svg width="106pt" height="332pt"
 viewBox="0.00 0.00 106.24 332.00" xmlns="http://www.w3.org/2000/svg" xmlns:xlink="http://www.w3.org/1999/xlink">
<g id="graph0" class="graph" transform="scale(1 1) rotate(0) translate(4 328)">
<title>G</title>
<polygon fill="white" stroke="none" points="-4,4 -4,-328 102.244,-328 102.244,4 -4,4"/>
<!-- upload -->
<g id="node1" class="node"><title>upload</title>
<ellipse fill="none" stroke="black" cx="37.0467" cy="-306" rx="34.394" ry="18"/>
<text text-anchor="middle" x="37.0467" y="-302.3" font-family="Times,serif" font-size="14.00">upload</text>
</g>
<!-- GitLab -->
<g id="node2" class="node"><title>GitLab</title>
<ellipse fill="none" stroke="black" cx="37.0467" cy="-162" rx="35.9954" ry="18"/>
<text text-anchor="middle" x="37.0467" y="-158.3" font-family="Times,serif" font-size="14.00">GitLab</text>
</g>
<!-- upload&#45;&gt;GitLab -->
<g id="edge1" class="edge"><title>upload&#45;&gt;GitLab</title>
<path fill="none" stroke="black" d="M32.9876,-287.929C30.7411,-277.598 28.1801,-264.12 27.0467,-252 25.557,-236.07 25.557,-231.93 27.0467,-216 27.8436,-207.478 29.3463,-198.285 30.9492,-189.986"/>
<polygon fill="black" stroke="black" points="34.4022,-190.571 32.9876,-180.071 27.5456,-189.161 34.4022,-190.571"/>
</g>
<!-- proxy -->
<g id="node5" class="node"><title>proxy</title>
<ellipse fill="none" stroke="black" cx="67.0467" cy="-234" rx="31.3957" ry="18"/>
<text text-anchor="middle" x="67.0467" y="-230.3" font-family="Times,serif" font-size="14.00">proxy</text>
</g>
<!-- upload&#45;&gt;proxy -->
<g id="edge4" class="edge"><title>upload&#45;&gt;proxy</title>
<path fill="none" stroke="black" d="M44.3089,-288.055C47.7727,-279.973 51.9947,-270.121 55.856,-261.112"/>
<polygon fill="black" stroke="black" points="59.1292,-262.359 59.8514,-251.789 52.6952,-259.602 59.1292,-262.359"/>
</g>
<!-- hook -->
<g id="node3" class="node"><title>hook</title>
<ellipse fill="none" stroke="black" cx="37.0467" cy="-90" rx="28.6953" ry="18"/>
<text text-anchor="middle" x="37.0467" y="-86.3" font-family="Times,serif" font-size="14.00">hook</text>
</g>
<!-- GitLab&#45;&gt;hook -->
<g id="edge2" class="edge"><title>GitLab&#45;&gt;hook</title>
<path fill="none" stroke="black" d="M37.0467,-143.697C37.0467,-135.983 37.0467,-126.712 37.0467,-118.112"/>
<polygon fill="black" stroke="black" points="40.5468,-118.104 37.0467,-108.104 33.5468,-118.104 40.5468,-118.104"/>
</g>
<!-- process -->
<g id="node4" class="node"><title>process</title>
<ellipse fill="none" stroke="black" cx="37.0467" cy="-18" rx="37.0935" ry="18"/>
<text text-anchor="middle" x="37.0467" y="-14.3" font-family="Times,serif" font-size="14.00">process</text>
</g>
<!-- hook&#45;&gt;process -->
<g id="edge3" class="edge"><title>hook&#45;&gt;process</title>
<path fill="none" stroke="black" d="M37.0467,-71.6966C37.0467,-63.9827 37.0467,-54.7125 37.0467,-46.1124"/>
<polygon fill="black" stroke="black" points="40.5468,-46.1043 37.0467,-36.1043 33.5468,-46.1044 40.5468,-46.1043"/>
</g>
<!-- proxy&#45;&gt;GitLab -->
<g id="edge5" class="edge"><title>proxy&#45;&gt;GitLab</title>
<path fill="none" stroke="black" d="M59.9371,-216.411C56.4761,-208.335 52.2315,-198.431 48.3416,-189.355"/>
<polygon fill="black" stroke="black" points="51.4699,-187.769 44.3137,-179.956 45.0359,-190.526 51.4699,-187.769"/>
</g>
</g>
</svg>
